<svg xmlns="http://www.w3.org/2000/svg" version="1.1" xmlns:xlink="http://www.w3.org/1999/xlink" width="200" height="200"><svg xmlns="http://www.w3.org/2000/svg" version="1.1" xmlns:xlink="http://www.w3.org/1999/xlink" viewBox="0 0 200 200"><rect width="200" height="200" fill="url('#gradient')"></rect><defs><linearGradient id="SvgjsLinearGradient1001" gradientTransform="rotate(45 0.5 0.5)"><stop offset="0%" stop-color="#e8d4de"></stop><stop offset="100%" stop-color="#bdcabc"></stop></linearGradient></defs><g><g fill="#d13a80" transform="matrix(2.9458670988654783,0,0,2.9458670988654783,27.97042364405658,120.93475984669195)" stroke="#d21d81" stroke-width="0.2"><path d="M12.24-14.22L12.24-11.57L7.97-11.57L7.97 0L4.54 0L4.54-11.57L0.35-11.57L0.35-14.22L12.24-14.22ZM22.50-8.57L22.50-6.03L17.11-6.03L17.11-2.64L23.48-2.64L23.48 0L13.68 0L13.68-14.22L23.50-14.22L23.50-11.57L17.11-11.57L17.11-8.57L22.50-8.57ZM32.21-3.78L32.21-3.78Q32.21-4.53 31.67-4.95Q31.14-5.37 29.80-5.82Q28.47-6.27 27.62-6.69L27.62-6.69Q24.85-8.05 24.85-10.42L24.85-10.42Q24.85-11.60 25.54-12.50Q26.23-13.41 27.49-13.91Q28.75-14.41 30.32-14.41L30.32-14.41Q31.86-14.41 33.07-13.87Q34.29-13.32 34.96-12.31Q35.63-11.30 35.63-10L35.63-10L32.22-10Q32.22-10.87 31.68-11.35Q31.15-11.83 30.24-11.83L30.24-11.83Q29.33-11.83 28.79-11.42Q28.26-11.02 28.26-10.39L28.26-10.39Q28.26-9.84 28.85-9.40Q29.43-8.96 30.91-8.48Q32.38-8.01 33.33-7.46L33.33-7.46Q35.63-6.13 35.63-3.80L35.63-3.80Q35.63-1.93 34.23-0.87Q32.82 0.20 30.37 0.20L30.37 0.20Q28.64 0.20 27.24-0.42Q25.84-1.04 25.13-2.12Q24.42-3.20 24.42-4.61L24.42-4.61L27.86-4.61Q27.86-3.47 28.45-2.92Q29.04-2.38 30.37-2.38L30.37-2.38Q31.22-2.38 31.71-2.75Q32.21-3.12 32.21-3.78ZM48.55-14.22L48.55-11.57L44.29-11.57L44.29 0L40.86 0L40.86-11.57L36.67-11.57L36.67-14.22L48.55-14.22Z"></path></g></g></svg><style>@media (prefers-color-scheme: light) { :root { filter: none; } }
@media (prefers-color-scheme: dark) { :root { filter: none; } }
</style></svg>